<?xml version="1.0" standalone="no"?><!DOCTYPE svg PUBLIC "-//W3C//DTD SVG 1.1//EN" "http://www.w3.org/Graphics/SVG/1.1/DTD/svg11.dtd"><svg version="1.1" xmlns="http://www.w3.org/2000/svg" xmlns:xlink="http://www.w3.org/1999/xlink" viewBox="0 0 1200 300"><g><rect x="0" y="0" width="150" height="150" fill="#203b46" /><rect x="150" y="0" width="150" height="150" fill="#294956" /><rect x="300" y="0" width="150" height="150" fill="#5e7b87" /><rect x="450" y="0" width="150" height="150" fill="#6b8894" /><rect x="600" y="0" width="150" height="150" fill="#899ca4" /><rect x="750" y="0" width="150" height="150" fill="#97abb4" /><rect x="900" y="0" width="150" height="150" fill="#dfecf1" /><rect x="1050" y="0" width="150" height="150" fill="#f5fcff" /><rect x="0" y="150" width="150" height="150" fill="#c14467" /><rect x="150" y="150" width="150" height="150" fill="#a0593b" /><rect x="300" y="150" width="150" height="150" fill="#a19445" /><rect x="450" y="150" width="150" height="150" fill="#40964a" /><rect x="600" y="150" width="150" height="150" fill="#358d74" /><rect x="750" y="150" width="150" height="150" fill="#119ad4" /><rect x="900" y="150" width="150" height="150" fill="#6a75cd" /><rect x="1050" y="150" width="150" height="150" fill="#ae429f" /></g></svg>
